<svg width="48" height="48" viewBox="0 0 48 48" fill="none" xmlns="http://www.w3.org/2000/svg">
<path d="M24 35.3964C24 35.6192 23.7307 35.7307 23.5732 35.5732L16.873 28.873C16.8261 28.8261 16.7626 28.7998 16.6963 28.7998H12.25C12.1119 28.7998 12 28.6879 12 28.5498V19.4502C12 19.3121 12.1119 19.2002 12.25 19.2002H16.6963C16.7626 19.2002 16.8261 19.1739 16.873 19.127L23.5732 12.4268C23.7307 12.2693 24 12.3808 24 12.6036V35.3964Z" fill="white"/>
<rect x="26" y="21" width="2" height="6" rx="0.25" fill="white"/>
<rect x="30" y="17" width="2" height="14" rx="0.25" fill="white"/>
<rect x="34" y="14" width="2" height="20" rx="0.25" fill="white"/>
</svg>
