<svg width="48" height="48" viewBox="0 0 48 48" fill="none" xmlns="http://www.w3.org/2000/svg">
<path d="M24 35.3964C24 35.6192 23.7307 35.7307 23.5732 35.5732L16.873 28.873C16.8261 28.8261 16.7626 28.7998 16.6963 28.7998H12.25C12.1119 28.7998 12 28.6879 12 28.5498V19.4502C12 19.3121 12.1119 19.2002 12.25 19.2002H16.6963C16.7626 19.2002 16.8261 19.1739 16.873 19.127L23.5732 12.4268C23.7307 12.2693 24 12.3808 24 12.6036V35.3964Z" fill="white"/>
<path d="M33.5604 20.0702C33.658 19.9727 33.8163 19.9727 33.9139 20.0702L34.9296 21.0858C35.0269 21.1834 35.0271 21.3418 34.9296 21.4393L32.369 23.9999L34.9296 26.5604C35.0271 26.658 35.027 26.8163 34.9296 26.9139L33.9139 27.9296C33.8163 28.0269 33.658 28.0271 33.5604 27.9296L30.9999 25.369L28.4393 27.9296C28.3418 28.0271 28.1834 28.0269 28.0858 27.9296L27.0702 26.9139C26.9727 26.8163 26.9727 26.658 27.0702 26.5604L29.6307 23.9999L27.0702 21.4393C26.9727 21.3418 26.9728 21.1834 27.0702 21.0858L28.0858 20.0702C28.1834 19.9727 28.3417 19.9727 28.4393 20.0702L30.9999 22.6307L33.5604 20.0702Z" fill="white"/>
</svg>
